PathFileType	4	(X/Y/Z)	\\Move.snu.ac.kr\motion\Animal\091204_091205_Bird\091205_bird\Project 2\Capture day 2\Session 1\pigeon_028.trc
DataRate	CameraRate	NumFrames	NumMarkers	Units	OrigDataRate	OrigDataStartFrame	OrigNumFrames
240.0	240.0	24	14	mm	240.0	373	6061
Frame#	Time	14MarkersBird:Head			14MarkersBird:C_back			14MarkersBird:Spine			14MarkersBird:L-shoulder			14MarkersBird:L-elbow			14MarkersBird:L-wrist			14MarkersBird:L-hand			14MarkersBird:R-shoulder			14MarkersBird:R-elbow			14MarkersBird:R-Wrist			14MarkersBird:R-hand			14MarkersBird:C_Tail			14MarkersBird:L-Tale			14MarkersBird:R-Tale			
		X1	Y1	Z1	X2	Y2	Z2	X3	Y3	Z3	X4	Y4	Z4	X5	Y5	Z5	X6	Y6	Z6	X7	Y7	Z7	X8	Y8	Z8	X9	Y9	Z9	X10	Y10	Z10	X11	Y11	Z11	X12	Y12	Z12	X13	Y13	Z13	X14	Y14	Z14	

4667	19.442	1741.39990	50.59438	-642.23560	1677.48621	34.89775	-615.02362	1639.80603	3.47489	-600.09375	1698.49927	42.33932	-644.29706	1675.41626	32.83806	-665.65088	1703.51050	29.16388	-700.34460	1706.04834	28.03516	-728.06049	1719.20935	38.35808	-606.79938	1718.45813	31.92908	-580.07629	1760.47681	25.70456	-577.23486	1790.81433	15.15236	-556.42596	1549.89648	-77.57314	-577.66675	1566.90625	-19.18711	-664.13422	1623.71924	-31.20356	-493.64661	
4668	19.446	1753.80383	47.81488	-649.24994	1689.69031	32.43120	-621.99518	1652.32019	-0.98072	-607.36035	1711.00464	39.97931	-651.39990	1689.80115	27.63893	-673.58374	1723.12439	23.22154	-702.99432	1731.50610	17.94180	-728.76355	1731.53186	36.14768	-613.96228	1732.87817	27.14824	-588.42932	1774.76685	20.19197	-592.82538	1807.35571	5.90555	-578.90320	1566.09192	-85.28458	-584.84363	1578.58264	-24.91817	-670.00000	1635.10706	-37.94749	-501.88513	
4669	19.450	1766.31396	45.12449	-656.26691	1702.07861	30.03808	-629.02765	1664.79333	-5.38161	-614.57928	1723.60962	37.71580	-658.49017	1703.29517	23.20194	-680.83337	1740.25903	19.64491	-704.96924	1753.81860	10.95958	-727.30286	1744.00879	34.12255	-621.06677	1746.10779	23.21016	-596.25537	1787.05688	17.35694	-606.88239	1820.68726	0.20893	-599.97296	1582.80188	-92.78385	-591.90277	1590.75269	-30.95601	-676.15399	1647.42017	-44.60864	-510.18808	
4670	19.454	1779.02222	42.49292	-663.33508	1714.75720	27.56027	-636.19263	1677.22974	-9.72557	-621.75311	1736.36279	35.44830	-665.56183	1715.68542	19.57107	-687.60181	1754.72949	18.66936	-707.51447	1772.22058	7.57480	-725.59430	1756.64087	32.12673	-628.14435	1758.17407	20.19150	-603.23566	1797.81873	17.14002	-618.40692	1831.59375	-1.95804	-617.86841	1599.79834	-100.03880	-599.56696	1603.45544	-36.88235	-682.69965	1660.78040	-51.24965	-518.45728	
4671	19.458	1791.98376	39.93040	-670.45789	1727.83801	24.92132	-643.50940	1689.63525	-14.01042	-628.88391	1749.31165	33.03933	-672.64001	1726.91956	16.73913	-693.95099	1766.67261	19.90752	-711.37646	1786.63708	7.48671	-725.53455	1769.36804	30.00762	-635.26385	1769.08936	18.07250	-609.36938	1807.54297	18.96714	-626.95044	1841.02576	-1.30448	-631.38788	1616.86145	-106.99992	-608.28473	1616.61926	-42.33683	-689.66901	1675.02295	-57.82607	-526.69989	
4672	19.462	1805.18225	37.47329	-677.57654	1741.34766	22.14174	-650.92767	1702.01453	-18.23397	-635.97430	1762.47046	30.36048	-679.75488	1737.17126	14.64523	-699.73633	1776.40857	22.43383	-716.53882	1797.57813	9.55117	-728.35822	1782.09241	27.71259	-642.51624	1778.82361	16.69066	-614.98871	1816.51172	21.89713	-632.68994	1849.76172	0.99260	-640.17633	1633.74121	-113.51831	-618.07513	1630.19031	-47.15976	-697.10022	1689.81494	-64.19185	-534.96362	
4673	19.467	1818.56848	35.11084	-684.65497	1755.23938	19.27653	-658.37018	1714.37292	-22.39403	-643.02649	1775.80151	27.34645	-686.92114	1746.85974	13.13257	-704.66077	1784.45154	25.34268	-722.54633	1805.70728	12.21843	-734.22253	1794.82117	25.17395	-649.86438	1787.34631	15.81759	-620.69678	1824.78992	25.02929	-636.30255	1858.14441	3.71264	-644.64386	1650.19543	-119.41690	-628.58521	1644.14587	-51.32014	-705.00153	1704.81799	-70.13345	-543.24670	
4674	19.471	1832.09485	32.76474	-691.73041	1769.43738	16.33661	-665.80579	1726.71521	-26.48839	-650.04285	1789.23584	24.02963	-694.13269	1756.56934	11.94859	-708.44708	1791.42432	28.08896	-728.83130	1811.42847	14.20231	-742.25928	1807.80762	22.04443	-656.95233	1794.77185	15.20394	-627.21417	1832.34644	27.84065	-638.72565	1865.98804	5.96628	-645.61334	1666.06433	-124.58916	-639.26154	1658.39868	-54.83475	-713.29907	1719.79346	-75.44609	-551.46759	
4675	19.475	1845.70117	30.35922	-698.84662	1783.82410	13.31312	-673.21979	1739.04675	-30.51488	-657.02582	1802.71423	20.53664	-701.35883	1766.85693	10.81887	-711.05945	1797.88782	30.40081	-734.75909	1814.86670	14.94516	-751.00598	1820.86902	18.64273	-663.92072	1801.51013	14.54245	-635.14496	1839.13391	30.17030	-640.93005	1872.70801	7.43509	-644.02118	1681.30786	-129.07794	-649.56531	1672.71643	-57.73937	-721.80951	1734.63147	-80.01917	-559.49805	
4676	19.479	1859.29822	27.88199	-705.98633	1798.21423	10.19200	-680.57251	1751.37268	-34.47131	-663.97766	1816.20093	17.02376	-708.55151	1778.04919	9.51939	-712.79602	1804.34082	32.16786	-739.75134	1816.17578	14.63754	-758.87421	1833.86572	15.14961	-670.86578	1808.20435	13.51939	-644.72931	1845.15356	31.98996	-643.78381	1877.55164	8.39105	-640.82971	1695.98242	-133.05936	-659.13818	1686.74841	-60.04458	-730.22156	1749.28894	-83.85343	-567.22504	
4677	19.483	1872.78015	25.38293	-713.08844	1812.50476	7.02184	-687.86371	1763.69775	-38.35547	-670.90070	1829.65100	13.59425	-715.65631	1790.24487	7.85340	-714.23920	1811.26697	33.35541	-743.49524	1815.90747	13.95276	-764.54315	1846.78674	11.57915	-677.78925	1815.50378	11.96755	-655.75342	1850.62048	33.29300	-647.97626	1879.88257	9.47557	-637.13727	1710.15979	-136.72885	-667.85449	1700.17578	-61.79902	-738.17419	1763.67102	-86.97575	-574.58221	
4678	19.487	1886.06775	22.93178	-720.10541	1826.66797	3.88574	-695.28711	1776.02734	-42.16518	-677.79742	1842.99841	10.25460	-722.64410	1803.45361	5.59293	-716.12030	1819.05200	33.99144	-746.13593	1815.11450	13.71686	-767.31079	1859.63916	7.93901	-684.69305	1823.90332	9.94689	-667.61963	1856.02490	34.10854	-653.83563	1879.44922	11.31576	-634.27258	1723.82886	-140.20331	-675.76855	1712.88184	-63.25828	-745.43567	1777.57397	-89.41651	-581.57507	
4679	19.492	1899.12646	20.56107	-727.02496	1840.16687	0.29446	-702.96942	1788.36646	-45.89826	-684.67017	1856.19836	6.92426	-729.55493	1817.57959	2.61525	-719.07159	1827.82227	34.14071	-748.27429	1815.08789	14.63412	-767.32178	1872.43030	4.23695	-691.57947	1833.66614	7.67587	-679.57208	1861.92578	34.49351	-661.12769	1876.67029	14.31472	-633.61670	1736.86060	-143.49142	-682.99988	1724.99768	-64.89944	-752.02222	1790.80725	-91.33959	-588.31696	
4680	19.496	1911.96985	18.20782	-733.86688	1853.29199	-3.63512	-710.59613	1800.72021	-49.55250	-691.52118	1869.24866	3.48534	-736.48157	1832.29919	-0.76310	-723.23804	1837.39331	33.86240	-750.78192	1816.90955	17.03966	-765.50098	1885.16797	0.48070	-698.45056	1844.80225	5.38471	-690.95966	1868.74963	34.50000	-669.14294	1872.73279	18.59252	-636.14630	1749.07886	-146.53000	-689.63416	1736.76111	-67.15028	-758.10767	1803.40710	-93.13417	-595.01208	
4681	19.500	1924.63818	15.71832	-740.66681	1866.17346	-7.75947	-717.97876	1813.09351	-53.12572	-698.35278	1882.16028	-0.14971	-743.49481	1847.11353	-3.82738	-728.28387	1847.38953	33.16996	-754.54907	1821.18201	20.78553	-763.24786	1897.85999	-3.32200	-705.30847	1857.16907	3.21356	-701.29309	1876.77515	34.10989	-676.99884	1869.40479	23.89152	-641.96228	1760.36829	-149.21771	-695.68634	1748.35205	-70.08859	-763.82745	1815.67163	-95.27643	-601.85162	
4682	19.504	1937.14771	12.95634	-747.43799	1878.81140	-12.04328	-725.13049	1825.49182	-56.61572	-705.16754	1894.92200	-4.00188	-750.61084	1861.60522	-6.05804	-733.98407	1857.45020	31.96512	-760.28217	1828.04834	25.25027	-762.20325	1910.51367	-7.16340	-712.15564	1870.62683	1.13122	-710.19238	1886.21375	33.13389	-683.89172	1868.71289	29.53085	-650.05133	1770.76025	-151.44891	-701.11157	1759.92773	-73.50402	-769.30389	1827.97437	-98.04183	-608.89233	
4683	19.508	1949.47717	9.88759	-754.15833	1891.23291	-16.45545	-732.10712	1837.91992	-60.02031	-711.96765	1907.48914	-8.04192	-757.80493	1875.56970	-7.63475	-740.63007	1867.40283	29.94400	-768.32819	1837.22339	29.42115	-764.13361	1923.13684	-11.03577	-718.99390	1885.01013	-1.07474	-717.43188	1897.26917	31.18559	-689.27716	1872.51172	34.44038	-658.44995	1780.46228	-153.16568	-705.87097	1771.75610	-77.21955	-774.85742	1840.57080	-101.34586	-616.03345	
4684	19.513	1961.63159	6.55200	-760.80621	1903.46716	-20.96486	-738.96588	1850.38293	-63.33730	-718.75555	1919.80481	-12.22875	-765.03369	1888.83850	-9.28442	-748.64008	1877.33875	26.63573	-778.59271	1847.97058	32.07374	-770.53741	1935.73706	-14.93136	-725.82574	1899.98389	-3.72567	-722.99353	1910.12183	27.78554	-692.99371	1881.90369	37.25498	-664.94904	1789.83032	-154.41241	-710.05353	1784.16223	-81.12608	-780.94904	1853.54504	-104.86726	-623.11163	
4685	19.517	1973.68066	3.00030	-767.39709	1915.54236	-25.54037	-745.76471	1862.88611	-66.56451	-725.53345	1931.86194	-16.50391	-772.26935	1901.22998	-11.71953	-758.03149	1887.55334	21.56053	-790.60529	1859.47437	32.09800	-781.99792	1948.32202	-18.84243	-732.65314	1915.07312	-7.11704	-727.09613	1924.88184	22.57097	-695.26929	1896.92712	36.69924	-668.17084	1799.28015	-155.39651	-713.96869	1797.28357	-85.01074	-787.82196	1866.90906	-108.30100	-629.99347	
4686	19.521	1985.73474	-0.74026	-773.99683	1927.48804	-30.15084	-752.56091	1875.43420	-69.69975	-732.30389	1943.73413	-20.77886	-779.49896	1912.81201	-15.20332	-768.50372	1898.51697	14.55687	-803.84387	1871.49219	28.83051	-797.90747	1960.89941	-22.76125	-739.47845	1929.97717	-11.39052	-730.20776	1941.57251	15.44738	-696.64514	1916.82275	32.06545	-668.26727	1809.21289	-156.50778	-718.07776	1810.93079	-88.63007	-795.32898	1880.69055	-111.56114	-636.61102	
4687	19.525	1997.86780	-4.61650	-780.67200	1939.33252	-34.76514	-759.41211	1888.03271	-72.74081	-739.06909	1955.54297	-24.94604	-786.68988	1924.02966	-19.57418	-779.81012	1910.88904	5.97813	-817.95667	1884.65723	22.29207	-816.84430	1973.47668	-26.68006	-746.30359	1944.85144	-16.56887	-732.88910	1960.12585	6.58864	-697.94843	1940.63135	23.41663	-666.75543	1819.93958	-158.23906	-722.82050	1824.71606	-91.94783	-803.09912	1894.88293	-114.79766	-642.97314	
4688	19.529	2010.06909	-8.49367	-787.43005	1951.10413	-39.35261	-766.37469	1900.68665	-75.68550	-745.83154	1967.41797	-28.88757	-793.73590	1935.53833	-24.52730	-791.76270	1925.34766	-3.56731	-832.56531	1900.09753	13.10088	-837.21405	1986.06165	-30.59114	-753.13110	1960.27612	-22.57274	-735.60138	1980.36108	-3.62929	-700.22308	1967.51099	11.42424	-665.80664	1831.63147	-161.04956	-728.47021	1838.24500	-95.23715	-810.77423	1909.31140	-118.21014	-649.14850	
4689	19.533	2022.28052	-12.21935	-794.23077	1962.82690	-43.88181	-773.48096	1913.40088	-78.53164	-752.59344	1979.46741	-32.51873	-800.53418	1947.92346	-29.82746	-804.06067	1942.30676	-13.59816	-847.00116	1918.77539	2.07196	-857.61743	1998.66187	-34.48673	-759.96283	1976.77051	-29.09628	-738.75220	2001.93250	-14.72517	-704.50061	1996.65515	-2.88806	-667.55103	1844.29553	-165.17223	-735.01855	1851.20325	-98.89468	-818.07526	1923.57495	-121.85718	-655.23584	
4690	19.538	2034.47754	-15.74388	-801.04462	1974.63855	-48.10175	-780.63599	1926.18054	-81.27704	-759.35736	1991.74243	-35.86769	-807.12335	1961.45972	-35.34342	-816.25183	1961.77258	-23.79629	-860.39160	1941.08313	-10.12229	-876.79303	2011.28503	-38.35907	-766.80127	1994.30981	-35.72969	-742.79004	2024.30408	-26.17597	-711.55017	2027.05322	-18.39529	-673.58551	1857.82690	-170.45724	-742.17456	1863.38208	-103.11172	-824.73682	1937.15027	-125.63201	-661.34314	
